<svg xmlns="http://www.w3.org/2000/svg" version="1.1" xmlns:xlink="http://www.w3.org/1999/xlink" xmlns:svgjs="http://svgjs.dev/svgjs" width="1440" height="560" preserveAspectRatio="none" viewBox="0 0 1440 560"><g mask="url(&quot;#SvgjsMask1007&quot;)" fill="none"><path d="M93.39 48.5L158.35 86L158.35 161L93.39 198.5L28.44 161L28.44 86zM28.44 161L93.39 198.5L93.39 273.5L28.44 311L-36.51 273.5L-36.51 198.5zM93.39 273.5L158.35 311L158.35 386L93.39 423.5L28.44 386L28.44 311zM28.44 386L93.39 423.5L93.39 498.5L28.44 536L-36.51 498.5L-36.51 423.5zM158.35 161L223.3 198.5L223.3 273.5L158.35 311L93.39 273.5L93.39 198.5zM158.35 386L223.3 423.5L223.3 498.5L158.35 536L93.39 498.5L93.39 423.5zM288.25 161L353.21 198.5L353.21 273.5L288.25 311L223.3 273.5L223.3 198.5zM288.25 386L353.21 423.5L353.21 498.5L288.25 536L223.3 498.5L223.3 423.5zM353.21 498.5L418.16 536L418.16 611L353.21 648.5L288.25 611L288.25 536zM418.16 161L483.12 198.5L483.12 273.5L418.16 311L353.21 273.5L353.21 198.5zM548.07 161L613.02 198.5L613.02 273.5L548.07 311L483.12 273.5L483.12 198.5zM742.93 48.5L807.89 86L807.89 161L742.93 198.5L677.98 161L677.98 86zM807.88 386L872.84 423.5L872.84 498.5L807.88 536L742.93 498.5L742.93 423.5zM937.79 161L1002.75 198.5L1002.75 273.5L937.79 311L872.84 273.5L872.84 198.5zM1067.7 161L1132.65 198.5L1132.65 273.5L1067.7 311L1002.75 273.5L1002.75 198.5zM1262.56 273.5L1327.51 311L1327.51 386L1262.56 423.5L1197.61 386L1197.61 311zM1392.47 273.5L1457.42 311L1457.42 386L1392.47 423.5L1327.52 386L1327.52 311zM1392.47 498.5L1457.42 536L1457.42 611L1392.47 648.5L1327.52 611L1327.52 536zM1522.38 48.5L1587.33 86L1587.33 161L1522.38 198.5L1457.42 161L1457.42 86zM1522.38 498.5L1587.33 536L1587.33 611L1522.38 648.5L1457.42 611L1457.42 536z" stroke="rgba(244, 245, 247, 0.93)" stroke-width="2"></path><path d="M85.89 48.5 a7.5 7.5 0 1 0 15 0 a7.5 7.5 0 1 0 -15 0zM150.85 86 a7.5 7.5 0 1 0 15 0 a7.5 7.5 0 1 0 -15 0zM150.85 161 a7.5 7.5 0 1 0 15 0 a7.5 7.5 0 1 0 -15 0zM85.89 198.5 a7.5 7.5 0 1 0 15 0 a7.5 7.5 0 1 0 -15 0zM20.94 161 a7.5 7.5 0 1 0 15 0 a7.5 7.5 0 1 0 -15 0zM20.94 86 a7.5 7.5 0 1 0 15 0 a7.5 7.5 0 1 0 -15 0zM85.89 273.5 a7.5 7.5 0 1 0 15 0 a7.5 7.5 0 1 0 -15 0zM20.94 311 a7.5 7.5 0 1 0 15 0 a7.5 7.5 0 1 0 -15 0zM-44.01 273.5 a7.5 7.5 0 1 0 15 0 a7.5 7.5 0 1 0 -15 0zM-44.01 198.5 a7.5 7.5 0 1 0 15 0 a7.5 7.5 0 1 0 -15 0zM150.85 311 a7.5 7.5 0 1 0 15 0 a7.5 7.5 0 1 0 -15 0zM150.85 386 a7.5 7.5 0 1 0 15 0 a7.5 7.5 0 1 0 -15 0zM85.89 423.5 a7.5 7.5 0 1 0 15 0 a7.5 7.5 0 1 0 -15 0zM20.94 386 a7.5 7.5 0 1 0 15 0 a7.5 7.5 0 1 0 -15 0zM85.89 498.5 a7.5 7.5 0 1 0 15 0 a7.5 7.5 0 1 0 -15 0zM20.94 536 a7.5 7.5 0 1 0 15 0 a7.5 7.5 0 1 0 -15 0zM-44.01 498.5 a7.5 7.5 0 1 0 15 0 a7.5 7.5 0 1 0 -15 0zM-44.01 423.5 a7.5 7.5 0 1 0 15 0 a7.5 7.5 0 1 0 -15 0zM215.8 198.5 a7.5 7.5 0 1 0 15 0 a7.5 7.5 0 1 0 -15 0zM215.8 273.5 a7.5 7.5 0 1 0 15 0 a7.5 7.5 0 1 0 -15 0zM215.8 423.5 a7.5 7.5 0 1 0 15 0 a7.5 7.5 0 1 0 -15 0zM215.8 498.5 a7.5 7.5 0 1 0 15 0 a7.5 7.5 0 1 0 -15 0zM150.85 536 a7.5 7.5 0 1 0 15 0 a7.5 7.5 0 1 0 -15 0zM280.75 161 a7.5 7.5 0 1 0 15 0 a7.5 7.5 0 1 0 -15 0zM345.71 198.5 a7.5 7.5 0 1 0 15 0 a7.5 7.5 0 1 0 -15 0zM345.71 273.5 a7.5 7.5 0 1 0 15 0 a7.5 7.5 0 1 0 -15 0zM280.75 311 a7.5 7.5 0 1 0 15 0 a7.5 7.5 0 1 0 -15 0zM280.75 386 a7.5 7.5 0 1 0 15 0 a7.5 7.5 0 1 0 -15 0zM345.71 423.5 a7.5 7.5 0 1 0 15 0 a7.5 7.5 0 1 0 -15 0zM345.71 498.5 a7.5 7.5 0 1 0 15 0 a7.5 7.5 0 1 0 -15 0zM280.75 536 a7.5 7.5 0 1 0 15 0 a7.5 7.5 0 1 0 -15 0zM410.66 536 a7.5 7.5 0 1 0 15 0 a7.5 7.5 0 1 0 -15 0zM410.66 611 a7.5 7.5 0 1 0 15 0 a7.5 7.5 0 1 0 -15 0zM345.71 648.5 a7.5 7.5 0 1 0 15 0 a7.5 7.5 0 1 0 -15 0zM280.75 611 a7.5 7.5 0 1 0 15 0 a7.5 7.5 0 1 0 -15 0zM410.66 161 a7.5 7.5 0 1 0 15 0 a7.5 7.5 0 1 0 -15 0zM475.62 198.5 a7.5 7.5 0 1 0 15 0 a7.5 7.5 0 1 0 -15 0zM475.62 273.5 a7.5 7.5 0 1 0 15 0 a7.5 7.5 0 1 0 -15 0zM410.66 311 a7.5 7.5 0 1 0 15 0 a7.5 7.5 0 1 0 -15 0zM540.57 161 a7.5 7.5 0 1 0 15 0 a7.5 7.5 0 1 0 -15 0zM605.52 198.5 a7.5 7.5 0 1 0 15 0 a7.5 7.5 0 1 0 -15 0zM605.52 273.5 a7.5 7.5 0 1 0 15 0 a7.5 7.5 0 1 0 -15 0zM540.57 311 a7.5 7.5 0 1 0 15 0 a7.5 7.5 0 1 0 -15 0zM735.43 48.5 a7.5 7.5 0 1 0 15 0 a7.5 7.5 0 1 0 -15 0zM800.39 86 a7.5 7.5 0 1 0 15 0 a7.5 7.5 0 1 0 -15 0zM800.39 161 a7.5 7.5 0 1 0 15 0 a7.5 7.5 0 1 0 -15 0zM735.43 198.5 a7.5 7.5 0 1 0 15 0 a7.5 7.5 0 1 0 -15 0zM670.48 161 a7.5 7.5 0 1 0 15 0 a7.5 7.5 0 1 0 -15 0zM670.48 86 a7.5 7.5 0 1 0 15 0 a7.5 7.5 0 1 0 -15 0zM800.38 386 a7.5 7.5 0 1 0 15 0 a7.5 7.5 0 1 0 -15 0zM865.34 423.5 a7.5 7.5 0 1 0 15 0 a7.5 7.5 0 1 0 -15 0zM865.34 498.5 a7.5 7.5 0 1 0 15 0 a7.5 7.5 0 1 0 -15 0zM800.38 536 a7.5 7.5 0 1 0 15 0 a7.5 7.5 0 1 0 -15 0zM735.43 498.5 a7.5 7.5 0 1 0 15 0 a7.5 7.5 0 1 0 -15 0zM735.43 423.5 a7.5 7.5 0 1 0 15 0 a7.5 7.5 0 1 0 -15 0zM930.29 161 a7.5 7.5 0 1 0 15 0 a7.5 7.5 0 1 0 -15 0zM995.25 198.5 a7.5 7.5 0 1 0 15 0 a7.5 7.5 0 1 0 -15 0zM995.25 273.5 a7.5 7.5 0 1 0 15 0 a7.5 7.5 0 1 0 -15 0zM930.29 311 a7.5 7.5 0 1 0 15 0 a7.5 7.5 0 1 0 -15 0zM865.34 273.5 a7.5 7.5 0 1 0 15 0 a7.5 7.5 0 1 0 -15 0zM865.34 198.5 a7.5 7.5 0 1 0 15 0 a7.5 7.5 0 1 0 -15 0zM1060.2 161 a7.5 7.5 0 1 0 15 0 a7.5 7.5 0 1 0 -15 0zM1125.15 198.5 a7.5 7.5 0 1 0 15 0 a7.5 7.5 0 1 0 -15 0zM1125.15 273.5 a7.5 7.5 0 1 0 15 0 a7.5 7.5 0 1 0 -15 0zM1060.2 311 a7.5 7.5 0 1 0 15 0 a7.5 7.5 0 1 0 -15 0zM1255.06 273.5 a7.5 7.5 0 1 0 15 0 a7.5 7.5 0 1 0 -15 0zM1320.01 311 a7.5 7.5 0 1 0 15 0 a7.5 7.5 0 1 0 -15 0zM1320.01 386 a7.5 7.5 0 1 0 15 0 a7.5 7.5 0 1 0 -15 0zM1255.06 423.5 a7.5 7.5 0 1 0 15 0 a7.5 7.5 0 1 0 -15 0zM1190.11 386 a7.5 7.5 0 1 0 15 0 a7.5 7.5 0 1 0 -15 0zM1190.11 311 a7.5 7.5 0 1 0 15 0 a7.5 7.5 0 1 0 -15 0zM1384.97 273.5 a7.5 7.5 0 1 0 15 0 a7.5 7.5 0 1 0 -15 0zM1449.92 311 a7.5 7.5 0 1 0 15 0 a7.5 7.5 0 1 0 -15 0zM1449.92 386 a7.5 7.5 0 1 0 15 0 a7.5 7.5 0 1 0 -15 0zM1384.97 423.5 a7.5 7.5 0 1 0 15 0 a7.5 7.5 0 1 0 -15 0zM1320.02 386 a7.5 7.5 0 1 0 15 0 a7.5 7.5 0 1 0 -15 0zM1320.02 311 a7.5 7.5 0 1 0 15 0 a7.5 7.5 0 1 0 -15 0zM1384.97 498.5 a7.5 7.5 0 1 0 15 0 a7.5 7.5 0 1 0 -15 0zM1449.92 536 a7.5 7.5 0 1 0 15 0 a7.5 7.5 0 1 0 -15 0zM1449.92 611 a7.5 7.5 0 1 0 15 0 a7.5 7.5 0 1 0 -15 0zM1384.97 648.5 a7.5 7.5 0 1 0 15 0 a7.5 7.5 0 1 0 -15 0zM1320.02 611 a7.5 7.5 0 1 0 15 0 a7.5 7.5 0 1 0 -15 0zM1320.02 536 a7.5 7.5 0 1 0 15 0 a7.5 7.5 0 1 0 -15 0zM1514.88 48.5 a7.5 7.5 0 1 0 15 0 a7.5 7.5 0 1 0 -15 0zM1579.83 86 a7.5 7.5 0 1 0 15 0 a7.5 7.5 0 1 0 -15 0zM1579.83 161 a7.5 7.5 0 1 0 15 0 a7.5 7.5 0 1 0 -15 0zM1514.88 198.5 a7.5 7.5 0 1 0 15 0 a7.5 7.5 0 1 0 -15 0zM1449.92 161 a7.5 7.5 0 1 0 15 0 a7.5 7.5 0 1 0 -15 0zM1449.92 86 a7.5 7.5 0 1 0 15 0 a7.5 7.5 0 1 0 -15 0zM1514.88 498.5 a7.5 7.5 0 1 0 15 0 a7.5 7.5 0 1 0 -15 0zM1579.83 536 a7.5 7.5 0 1 0 15 0 a7.5 7.5 0 1 0 -15 0zM1579.83 611 a7.5 7.5 0 1 0 15 0 a7.5 7.5 0 1 0 -15 0zM1514.88 648.5 a7.5 7.5 0 1 0 15 0 a7.5 7.5 0 1 0 -15 0z" fill="rgba(244, 245, 247, 0.93)"></path><path d="M23.68 113.11L66.98 138.11L66.98 188.11L23.68 213.11L-19.62 188.11L-19.62 138.11zM66.98 188.11L110.28 213.11L110.28 263.11L66.98 288.11L23.68 263.11L23.68 213.11zM23.68 263.11L66.98 288.11L66.98 338.11L23.68 363.11L-19.62 338.11L-19.62 288.11zM110.28 -36.89L153.59 -11.89L153.59 38.11L110.28 63.11L66.98 38.11L66.98 -11.89zM153.59 188.11L196.89 213.11L196.89 263.11L153.59 288.11L110.28 263.11L110.28 213.11zM110.28 263.11L153.59 288.11L153.59 338.11L110.28 363.11L66.98 338.11L66.98 288.11zM196.89 113.11L240.19 138.11L240.19 188.11L196.89 213.11L153.59 188.11L153.59 138.11zM196.89 413.11L240.19 438.11L240.19 488.11L196.89 513.11L153.59 488.11L153.59 438.11zM283.5 -36.89L326.8 -11.89L326.8 38.11L283.5 63.11L240.19 38.11L240.19 -11.89zM326.8 38.11L370.1 63.11L370.1 113.11L326.8 138.11L283.5 113.11L283.5 63.11zM283.5 113.11L326.8 138.11L326.8 188.11L283.5 213.11L240.19 188.11L240.19 138.11zM326.8 338.11L370.1 363.11L370.1 413.11L326.8 438.11L283.5 413.11L283.5 363.11zM370.1 113.11L413.4 138.11L413.4 188.11L370.1 213.11L326.8 188.11L326.8 138.11zM413.4 188.11L456.71 213.11L456.71 263.11L413.4 288.11L370.1 263.11L370.1 213.11zM413.4 338.11L456.71 363.11L456.71 413.11L413.4 438.11L370.1 413.11L370.1 363.11zM456.71 -36.89L500.01 -11.89L500.01 38.11L456.71 63.11L413.4 38.11L413.4 -11.89zM500.01 38.11L543.31 63.11L543.31 113.11L500.01 138.11L456.71 113.11L456.71 63.11zM500.01 338.11L543.31 363.11L543.31 413.11L500.01 438.11L456.71 413.11L456.71 363.11zM456.71 413.11L500.01 438.11L500.01 488.11L456.71 513.11L413.4 488.11L413.4 438.11zM500.01 488.11L543.31 513.11L543.31 563.11L500.01 588.11L456.71 563.11L456.71 513.11zM543.31 113.11L586.61 138.11L586.61 188.11L543.31 213.11L500.01 188.11L500.01 138.11zM543.31 263.11L586.61 288.11L586.61 338.11L543.31 363.11L500.01 338.11L500.01 288.11zM586.61 338.11L629.91 363.11L629.91 413.11L586.61 438.11L543.31 413.11L543.31 363.11zM543.31 413.11L586.61 438.11L586.61 488.11L543.31 513.11L500.01 488.11L500.01 438.11zM586.61 488.11L629.91 513.11L629.91 563.11L586.61 588.11L543.31 563.11L543.31 513.11zM673.22 38.11L716.52 63.11L716.52 113.11L673.22 138.11L629.91 113.11L629.91 63.11zM673.22 188.11L716.52 213.11L716.52 263.11L673.22 288.11L629.91 263.11L629.91 213.11zM629.91 263.11L673.22 288.11L673.22 338.11L629.91 363.11L586.61 338.11L586.61 288.11zM716.52 -36.89L759.82 -11.89L759.82 38.11L716.52 63.11L673.22 38.11L673.22 -11.89zM759.82 188.11L803.13 213.11L803.13 263.11L759.82 288.11L716.52 263.11L716.52 213.11zM759.82 338.11L803.13 363.11L803.13 413.11L759.82 438.11L716.52 413.11L716.52 363.11zM716.52 413.11L759.82 438.11L759.82 488.11L716.52 513.11L673.22 488.11L673.22 438.11zM759.82 488.11L803.13 513.11L803.13 563.11L759.82 588.11L716.52 563.11L716.52 513.11zM803.13 -36.89L846.43 -11.89L846.43 38.11L803.13 63.11L759.82 38.11L759.82 -11.89zM846.43 188.11L889.73 213.11L889.73 263.11L846.43 288.11L803.13 263.11L803.13 213.11zM803.13 263.11L846.43 288.11L846.43 338.11L803.13 363.11L759.82 338.11L759.82 288.11zM846.43 338.11L889.73 363.11L889.73 413.11L846.43 438.11L803.13 413.11L803.13 363.11zM803.13 413.11L846.43 438.11L846.43 488.11L803.13 513.11L759.82 488.11L759.82 438.11zM846.43 488.11L889.73 513.11L889.73 563.11L846.43 588.11L803.13 563.11L803.13 513.11zM889.73 113.11L933.03 138.11L933.03 188.11L889.73 213.11L846.43 188.11L846.43 138.11zM976.34 113.11L1019.64 138.11L1019.64 188.11L976.34 213.11L933.03 188.11L933.03 138.11zM976.34 263.11L1019.64 288.11L1019.64 338.11L976.34 363.11L933.03 338.11L933.03 288.11zM1019.64 338.11L1062.94 363.11L1062.94 413.11L1019.64 438.11L976.34 413.11L976.34 363.11zM1019.64 488.11L1062.94 513.11L1062.94 563.11L1019.64 588.11L976.34 563.11L976.34 513.11zM1106.24 38.11L1149.55 63.11L1149.55 113.11L1106.24 138.11L1062.94 113.11L1062.94 63.11zM1149.55 -36.89L1192.85 -11.89L1192.85 38.11L1149.55 63.11L1106.24 38.11L1106.24 -11.89zM1192.85 188.11L1236.15 213.11L1236.15 263.11L1192.85 288.11L1149.55 263.11L1149.55 213.11zM1192.85 338.11L1236.15 363.11L1236.15 413.11L1192.85 438.11L1149.55 413.11L1149.55 363.11zM1149.55 413.11L1192.85 438.11L1192.85 488.11L1149.55 513.11L1106.24 488.11L1106.24 438.11zM1192.85 488.11L1236.15 513.11L1236.15 563.11L1192.85 588.11L1149.55 563.11L1149.55 513.11zM1236.15 -36.89L1279.45 -11.89L1279.45 38.11L1236.15 63.11L1192.85 38.11L1192.85 -11.89zM1279.45 38.11L1322.76 63.11L1322.76 113.11L1279.45 138.11L1236.15 113.11L1236.15 63.11zM1279.45 338.11L1322.76 363.11L1322.76 413.11L1279.45 438.11L1236.15 413.11L1236.15 363.11zM1366.06 38.11L1409.36 63.11L1409.36 113.11L1366.06 138.11L1322.76 113.11L1322.76 63.11zM1322.76 113.11L1366.06 138.11L1366.06 188.11L1322.76 213.11L1279.45 188.11L1279.45 138.11zM1366.06 188.11L1409.36 213.11L1409.36 263.11L1366.06 288.11L1322.76 263.11L1322.76 213.11zM1322.76 263.11L1366.06 288.11L1366.06 338.11L1322.76 363.11L1279.45 338.11L1279.45 288.11zM1452.66 188.11L1495.97 213.11L1495.97 263.11L1452.66 288.11L1409.36 263.11L1409.36 213.11zM1452.66 338.11L1495.97 363.11L1495.97 413.11L1452.66 438.11L1409.36 413.11L1409.36 363.11zM1409.36 413.11L1452.66 438.11L1452.66 488.11L1409.36 513.11L1366.06 488.11L1366.06 438.11zM1452.66 488.11L1495.97 513.11L1495.97 563.11L1452.66 588.11L1409.36 563.11L1409.36 513.11z" stroke="rgba(244, 245, 247, 0.93)" stroke-width="2"></path></g><defs><mask id="SvgjsMask1007"><rect width="1440" height="560" fill="#ffffff"></rect></mask></defs></svg>